<svg xmlns="http://www.w3.org/2000/svg" xmlns:xlink="http://www.w3.org/1999/xlink" width="252.65" height="217.098" viewBox="0 0 252.65 217.098">
  <defs>
    <clipPath id="clip-path">
      <path id="Path_54" data-name="Path 54" d="M267.586,237s23.346.258,26.883,4.3.258,18.528.258,18.528a76.347,76.347,0,0,1,8.14,22.335c2.28,12.431-3.054,24.873-3.054,24.873s-2.28,11.409-4.559,16.485-18.775,4.828-28.679,3.043-5.828-19.023-5.065-31.712-2.29-47.444-2.29-50.745S261.51,239.559,267.586,237Z" transform="translate(-259.22 -237)" fill="#fff" stroke="#263238" stroke-linecap="round" stroke-linejoin="round" stroke-width="1"/>
    </clipPath>
    <clipPath id="clip-path-2">
      <path id="Path_81" data-name="Path 81" d="M377.163,413.415s-39.583-65.466-42.121-65.972-13.194-1.011-13.194-1.011-28.927-15.732-34-15.732-29.432,14.711-31.97,15.732-16.238,2.538-16.238,4.559-9.678,18.281-9.678,18.281l-19.8,7.108-1.516,7.613-6.1,33.991H383.207Z" transform="translate(-202.55 -330.7)" fill="#fff" stroke="#263238" stroke-linecap="round" stroke-linejoin="round" stroke-width="1"/>
    </clipPath>
    <clipPath id="clip-path-3">
      <path id="Path_92" data-name="Path 92" d="M245.895,258.81s-4.9,6.258-6.258,11.334-6.258,23-7.269,24.356-4.237,5.925-7.28,8.119-13.119,6.215-16.84,9.431-1.936,4.774-3.452,7.312,5.377,4.065,6.925,4.065,12.689-.677,18.947-2.871,16.076-14.549,16.41-15.227,2.151-11.829,2.71-24.733S252.347,258.81,245.895,258.81Z" transform="translate(-204.579 -258.81)" fill="#fff" stroke="#263238" stroke-linecap="round" stroke-linejoin="round" stroke-width="1"/>
    </clipPath>
    <clipPath id="clip-path-4">
      <path id="Path_101" data-name="Path 101" d="M239.82,258.151s4.3,8.6,5.377,10.28,1.28,1,2.419.43,21.98-18.55,23.84-19.27,5.56,1,5.85-.85-7.71-13.42-9.99-15.27-6.85,5.129-7.99,5.7-1.57,0-3.57.43S243.53,252.871,239.82,258.151Z" transform="translate(-239.82 -233.161)" fill="#fff" stroke="#263238" stroke-linecap="round" stroke-linejoin="round" stroke-width="1"/>
    </clipPath>
    <clipPath id="clip-path-5">
      <path id="Path_107" data-name="Path 107" d="M243.93,256.67l4.71,3.85a118.987,118.987,0,0,0,6.56-10.99l-2.419-7.99Z" transform="translate(-243.93 -241.54)" fill="#fff" stroke="#263238" stroke-linecap="round" stroke-linejoin="round" stroke-width="1"/>
    </clipPath>
    <clipPath id="clip-path-6">
      <path id="Path_112" data-name="Path 112" d="M230.263,219.265a17.582,17.582,0,0,0-3.753,10.753c0,7.14,3.14,17.84,5.28,22.26s7.527,10.56,10.13,10.753,8.99-9.678,10.27-12.13a15.054,15.054,0,0,0,1.57-4.14s3.71-1.71,3.28-8.6-3.14-17.13-2.419-18.84,3.99-4.99,3.28-6.14-2.151-.28-3.71.57-7.527-.419-11.99,0a22.765,22.765,0,0,0-8.474,2.581,11.9,11.9,0,0,0-3.463,2.936Z" transform="translate(-226.51 -212.626)" fill="#fff" stroke="#263238" stroke-linecap="round" stroke-linejoin="round" stroke-width="1"/>
    </clipPath>
    <clipPath id="clip-path-7">
      <path id="Path_124" data-name="Path 124" d="M257.942,213.178c-.71-1.14-2.151-.28-3.71.57s-7.527-.419-11.99,0a22.764,22.764,0,0,0-8.474,2.581,11.9,11.9,0,0,0-3.506,2.936,17.582,17.582,0,0,0-3.753,10.753,36.87,36.87,0,0,0,.376,4.9c4.065-2.936,15.238-8.538,30.174,3.979v-.742c-.419-6.85-3.14-17.13-2.42-18.84S258.652,214.329,257.942,213.178Z" transform="translate(-226.51 -212.63)" fill="#263238" stroke="#263238" stroke-linecap="round" stroke-linejoin="round" stroke-width="1"/>
    </clipPath>
    <clipPath id="clip-path-8">
      <path id="Path_129" data-name="Path 129" d="M278.344,253.248s-4.226-4.237-11.829,2.022-5.377,18.614-5.237,23.657,2.022,17.926,2.022,20.636v4.4s-9.979,4.4-13.861,5.581-11.506,1.355-13.194,1.688-5.925-1.516-6.936.344-3.043,8.958-.344,10.14,16.238,1.355,25.711,1.355,24.023-2.366,27.41-4.4,2.7-13.7,2.7-21.647-.172-25.539-1.516-32.819S279.7,254.6,278.344,253.248Z" transform="translate(-227.62 -251.847)" fill="#fff" stroke="#263238" stroke-linecap="round" stroke-linejoin="round" stroke-width="1"/>
    </clipPath>
    <clipPath id="clip-path-9">
      <path id="Path_144" data-name="Path 144" d="M260.344,413.952s-31.97-36.562-35.013-36.562-74.6,13.7-77.134,17.205-11.667,21.819-11.667,21.819H264.915Z" transform="translate(-136.53 -377.39)" fill="#fff" stroke="#263238" stroke-linecap="round" stroke-linejoin="round" stroke-width="1"/>
    </clipPath>
  </defs>
  <g id="freepik--Character--inject-16" transform="translate(0.5 0.397)">
    <path id="Path_52" data-name="Path 52" d="M267.586,237s23.346.258,26.883,4.3.258,18.528.258,18.528a76.347,76.347,0,0,1,8.14,22.335c2.28,12.431-3.054,24.873-3.054,24.873s-2.28,11.409-4.559,16.485-18.775,4.828-28.679,3.043-5.828-19.023-5.065-31.712-2.29-47.444-2.29-50.745S261.51,239.559,267.586,237Z" transform="translate(-127.287 -210.79)" fill="#fff"/>
    <g id="Group_52" data-name="Group 52" transform="translate(131.933 26.21)" clip-path="url(#clip-path)">
      <path id="Path_53" data-name="Path 53" d="M267.586,237s23.346.258,26.883,4.3.258,18.528.258,18.528a76.347,76.347,0,0,1,8.14,22.335c2.28,12.431-3.054,24.873-3.054,24.873s-2.28,11.409-4.559,16.485-18.775,4.828-28.679,3.043-5.828-19.023-5.065-31.712-2.29-47.444-2.29-50.745S261.51,239.559,267.586,237Z" transform="translate(-259.22 -237)" opacity="0.1"/>
    </g>
    <path id="Path_55" data-name="Path 55" d="M267.586,237s23.346.258,26.883,4.3.258,18.528.258,18.528a76.347,76.347,0,0,1,8.14,22.335c2.28,12.431-3.054,24.873-3.054,24.873s-2.28,11.409-4.559,16.485-18.775,4.828-28.679,3.043-5.828-19.023-5.065-31.712-2.29-47.444-2.29-50.745S261.51,239.559,267.586,237Z" transform="translate(-127.287 -210.79)" fill="none" stroke="#263238" stroke-linecap="round" stroke-linejoin="round" stroke-width="1"/>
    <path id="Path_56" data-name="Path 56" d="M293.914,258.527s-13.452,4.3-23.345,5.581l-.258-4.57s20.55-1.774,24.109-4.817Z" transform="translate(-126.451 -209.455)" fill="#263238" stroke="#263238" stroke-linecap="round" stroke-linejoin="round" stroke-width="1"/>
    <path id="Path_57" data-name="Path 57" d="M298.529,302.15s-15.721,3.549-21.313,3.043l-.505,4.3s15.485-.258,21.066-2.8Z" transform="translate(-125.969 -205.881)" fill="#263238" stroke="#263238" stroke-linecap="round" stroke-linejoin="round" stroke-width="1"/>
    <path id="Path_58" data-name="Path 58" d="M241.453,316.635s-35.013-3.043-43.39,0-9.678,13.452-9.678,20.55-5.377,38.82-5.839,40.089-6.086,12.431-4.3,14.969,17.765,0,20.55-2.785,9.893-34,12.431-42.121a74.84,74.84,0,0,1,5.581-13.453s33.239,13.711,50.756,8.882,11.162-17.205,1.516-22.324S241.453,316.635,241.453,316.635Z" transform="translate(-133.414 -204.892)" fill="#263238" stroke="#263238" stroke-linecap="round" stroke-linejoin="round" stroke-width="1"/>
    <path id="Path_59" data-name="Path 59" d="M182.019,371.051s-9.14,2.785-13.7,2.785-11.42-1.527-12.442,4.818,4.828,12.442,17.765,13.194,16.5.516,19.281-2.28,2.29-6.345-.505-10.915S184.8,370.793,182.019,371.051Z" transform="translate(-135.081 -200.692)" fill="#fff" stroke="#263238" stroke-linecap="round" stroke-linejoin="round" stroke-width="1"/>
    <path id="Path_60" data-name="Path 60" d="M189.017,379.922a11.825,11.825,0,0,0,2.592-1.559c-2.817-4.409-7.474-7.527-10.2-7.312,0,0-9.14,2.785-13.7,2.785h-.71c-1.817.677-4.043,2.215-2.592,5.592C166.683,384.751,179.877,383.987,189.017,379.922Z" transform="translate(-134.465 -200.691)" fill="#fff" stroke="#263238" stroke-linecap="round" stroke-linejoin="round" stroke-width="1"/>
    <path id="Path_61" data-name="Path 61" d="M377.163,413.415s-39.583-65.466-42.121-65.972-13.194-1.011-13.194-1.011-28.927-15.732-34-15.732-29.432,14.711-31.97,15.732-16.238,2.538-16.238,4.559-9.678,18.281-9.678,18.281l-19.8,7.108-1.516,7.613-6.1,33.991H383.207Z" transform="translate(-131.556 -203.73)" fill="#fff"/>
    <g id="Group_53" data-name="Group 53" transform="translate(70.994 126.97)" clip-path="url(#clip-path-2)">
      <path id="Path_62" data-name="Path 62" d="M387.457,419.289l-9.818-8.248-40.863-65.219-18.464-2.753s-29.034-14.926-32.26-14.538S250.3,347.79,249.126,347.79s-9.044-.4-11,2.355-10.216,16.893-10.216,16.893l-20.431,6.678-1.968,14.141,16.13.785,32.615,32.26h136.74Z" transform="translate(-202.327 -330.864)" opacity="0.21"/>
      <ellipse id="Ellipse_3" data-name="Ellipse 3" cx="9.13" cy="5.656" rx="9.13" ry="5.656" transform="translate(100.512 21.195)" fill="#fff"/>
      <path id="Path_63" data-name="Path 63" d="M331.278,350.116c0,3.129-4.086,5.667-9.119,5.667s-9.13-2.538-9.13-5.667,4.086-5.656,9.13-5.656S331.278,347,331.278,350.116Z" transform="translate(-194.227 -329.663)" fill="#fff"/>
      <path id="Path_64" data-name="Path 64" d="M297.511,357.866c0,1.312-1.634,2.377-3.645,2.377s-3.656-1.075-3.656-2.377,1.634-2.366,3.656-2.366S297.511,356.554,297.511,357.866Z" transform="translate(-195.946 -328.832)" fill="#fff"/>
      <ellipse id="Ellipse_4" data-name="Ellipse 4" cx="6.205" cy="4.194" rx="6.205" ry="4.194" transform="translate(115.48 23.023)" fill="#fff"/>
      <path id="Path_65" data-name="Path 65" d="M313.164,362.861c0,1.807-2.7,3.28-6.022,3.28s-6.022-1.473-6.022-3.28,2.688-3.291,6.022-3.291S313.164,361.043,313.164,362.861Z" transform="translate(-195.124 -328.525)" fill="#fff"/>
      <path id="Path_66" data-name="Path 66" d="M289.69,357.84c0,1.075-1.473,2.011-3.28,2.011s-3.291-.9-3.291-2.011,1.473-2,3.291-2S289.69,356.733,289.69,357.84Z" transform="translate(-196.48 -328.806)" fill="#fff"/>
      <path id="Path_67" data-name="Path 67" d="M299.1,348.785c0,.6-1.151,1.076-2.559,1.076s-2.549-.484-2.549-1.076,1.14-1.075,2.549-1.075S299.1,348.172,299.1,348.785Z" transform="translate(-195.661 -329.419)" fill="#fff"/>
      <path id="Path_68" data-name="Path 68" d="M316.272,349.584c0,1.613-1.8,2.925-4.011,2.925s-4.011-1.312-4.011-2.925,1.8-2.914,4.011-2.914S316.272,347.971,316.272,349.584Z" transform="translate(-194.587 -329.497)" fill="#fff"/>
      <path id="Path_69" data-name="Path 69" d="M308.711,348.29c0,.7-1.473,1.269-3.29,1.269s-3.291-.57-3.291-1.269,1.473-1.28,3.291-1.28S308.711,347.58,308.711,348.29Z" transform="translate(-195.048 -329.471)" fill="#fff"/>
      <path id="Path_70" data-name="Path 70" d="M319.954,367.113c0,1.914-2.7,3.463-6.022,3.463s-6.022-1.548-6.022-3.463,2.688-3.473,6.022-3.473S319.954,365.2,319.954,367.113Z" transform="translate(-194.613 -328.218)" fill="#fff"/>
      <ellipse id="Ellipse_5" data-name="Ellipse 5" cx="8.398" cy="5.473" rx="8.398" ry="5.473" transform="translate(120.588 28.131)" fill="#fff"/>
      <path id="Path_71" data-name="Path 71" d="M335.907,356.893c0,3.032-3.764,5.484-8.4,5.484s-8.4-2.452-8.4-5.484,3.764-5.473,8.4-5.473S335.907,353.872,335.907,356.893Z" transform="translate(-193.769 -329.139)" fill="#fff"/>
      <path id="Path_72" data-name="Path 72" d="M276.512,363.179c0,1.419-1.635,2.559-3.645,2.559s-3.656-1.14-3.656-2.559,1.634-2.549,3.656-2.549S276.512,361.727,276.512,363.179Z" transform="translate(-197.528 -328.445)" fill="#fff"/>
      <path id="Path_73" data-name="Path 73" d="M281.5,372.148c0,2.828-4.581,5.119-10.226,5.119s-10.227-2.29-10.227-5.119,4.581-5.108,10.227-5.108S281.5,369.331,281.5,372.148Z" transform="translate(-198.143 -327.962)" fill="#fff"/>
      <path id="Path_74" data-name="Path 74" d="M285.009,366.8c0,2.151-2.774,3.828-6.2,3.828s-6.2-1.71-6.2-3.828,2.774-3.839,6.2-3.839S285.009,364.681,285.009,366.8Z" transform="translate(-197.273 -328.27)" fill="#fff"/>
      <path id="Path_75" data-name="Path 75" d="M260.035,358.1c0,1.817-2.7,3.291-6.033,3.291s-6.022-1.473-6.022-3.291,2.7-3.28,6.022-3.28S260.035,356.283,260.035,358.1Z" transform="translate(-199.128 -328.883)" fill="#fff"/>
      <path id="Path_76" data-name="Path 76" d="M253.626,364.151c0,1.215-2.29,2.151-5.119,2.151s-5.108-.979-5.108-2.151,2.29-2.151,5.108-2.151S253.626,362.925,253.626,364.151Z" transform="translate(-199.473 -328.342)" fill="#fff"/>
      <ellipse id="Ellipse_6" data-name="Ellipse 6" cx="3.473" cy="2.011" rx="3.473" ry="2.011" transform="translate(53.046 35.056)" fill="#fff"/>
      <path id="Path_77" data-name="Path 77" d="M241,372.7c0,1.817-3.226,3.291-7.119,3.291s-7.119-1.473-7.119-3.291,3.226-3.28,7.119-3.28S241,370.882,241,372.7Z" transform="translate(-200.726 -327.783)" fill="#fff"/>
      <ellipse id="Ellipse_7" data-name="Ellipse 7" cx="7.667" cy="5.291" rx="7.667" ry="5.291" transform="translate(33.701 50.767)" fill="#fff"/>
      <path id="Path_78" data-name="Path 78" d="M245.952,373.461c0,1.075-1.634,2.011-3.656,2.011s-3.645-.9-3.645-2.011,1.635-2.011,3.645-2.011S245.952,372.353,245.952,373.461Z" transform="translate(-199.83 -327.63)" fill="#fff"/>
      <ellipse id="Ellipse_8" data-name="Ellipse 8" cx="4.194" cy="2.194" rx="4.194" ry="2.194" transform="translate(26.045 48.562)" fill="#fff"/>
      <path id="Path_79" data-name="Path 79" d="M256.965,381.819c0,1.409-2.151,2.549-4.742,2.549s-4.753-1.14-4.753-2.549,2.151-2.559,4.753-2.559S256.965,380.411,256.965,381.819Z" transform="translate(-199.166 -327.042)" fill="#fff"/>
      <path id="Path_80" data-name="Path 80" d="M340.016,346.27l1.505,31.389-47.831-12.528,1.14,36.443-25.625-18.216-2.269,12.528-21.077,4.559-20.528-20.679-9.076,21.249-43.282,6.259-36.443,11.56H264.915l-1-2.161,124.309.14-6.086-4.57Z" transform="translate(-207.524 -329.527)" opacity="0.1"/>
    </g>
    <path id="Path_82" data-name="Path 82" d="M377.163,413.415s-39.583-65.466-42.121-65.972-13.194-1.011-13.194-1.011-28.927-15.732-34-15.732-29.432,14.711-31.97,15.732-16.238,2.538-16.238,4.559-9.678,18.281-9.678,18.281l-19.8,7.108-1.516,7.613-6.1,33.991H383.207Z" transform="translate(-131.556 -203.73)" fill="none" stroke="#263238" stroke-linecap="round" stroke-linejoin="round" stroke-width="1"/>
    <path id="Path_83" data-name="Path 83" d="M237.585,350.992c0,1.57-5.71,11.549-8.345,16.055l20.582-9.678,41.53-1.839,14.625-6.129h13.689L322,346.54l-2.151-.108s-28.927-15.732-34-15.732-29.432,14.711-31.97,15.732S237.585,348.97,237.585,350.992Z" transform="translate(-129.546 -203.73)" opacity="0.1"/>
    <path id="Path_84" data-name="Path 84" d="M228.08,366.56h17.248l25.378,23.346-.516,16.238-16.743,8.624" transform="translate(-129.633 -201.029)" fill="none" stroke="#263238" stroke-linecap="round" stroke-linejoin="round" stroke-width="1"/>
    <path id="Path_85" data-name="Path 85" d="M252.37,374.695l22.087-16.625,32.981,19.281,14.721,39.078" transform="translate(-127.803 -201.669)" fill="none" stroke="#263238" stroke-linecap="round" stroke-linejoin="round" stroke-width="1"/>
    <path id="Path_86" data-name="Path 86" d="M306.282,376,300.2,396.3l-24.356,6.592-8.119-5.581" transform="translate(-126.647 -200.318)" fill="none" stroke="#263238" stroke-linecap="round" stroke-linejoin="round" stroke-width="1"/>
    <line id="Line_8" data-name="Line 8" x2="1.011" y2="11.667" transform="translate(149.192 202.577)" fill="#fff" stroke="#263238" stroke-linecap="round" stroke-linejoin="round" stroke-width="1"/>
    <line id="Line_9" data-name="Line 9" x2="7.613" y2="17.754" transform="translate(173.549 195.985)" fill="#fff" stroke="#263238" stroke-linecap="round" stroke-linejoin="round" stroke-width="1"/>
    <path id="Path_87" data-name="Path 87" d="M287.343,315.852s.505,12.9-2.032,18.528-6.344,8.366-21.055,9.388-34.508-6.1-34.508-6.1-10.657,18.023-14.969,25.883-12.184,16.743-14.463,19.8-4.828,7.6-7.871,9.13-10.151-7.613-11.42-10.915-2.28-5.581-2.022-7.1,5.828-4.065,5.828-4.065,8.6-16.238,12.689-22.829,7.108-20.044,10.657-24.873,11.678-7.613,21.819-7.1,26.647,2.581,30.959,2.581S287.343,315.852,287.343,315.852Z" transform="translate(-133.333 -204.872)" fill="#263238" stroke="#263238" stroke-linecap="round" stroke-linejoin="round" stroke-width="1"/>
    <path id="Path_88" data-name="Path 88" d="M188,363.094c4.151-7.388,11.151-20.1,13.162-25.324,2.914-7.581,6.129-13.979,6.129-13.979" transform="translate(-132.652 -204.251)" fill="none" stroke="#fff" stroke-linecap="round" stroke-linejoin="round" stroke-width="0.75"/>
    <path id="Path_89" data-name="Path 89" d="M185.05,365.678s.495-.85,1.29-2.258" transform="translate(-132.875 -201.265)" fill="none" stroke="#fff" stroke-linecap="round" stroke-linejoin="round" stroke-width="0.75"/>
    <path id="Path_90" data-name="Path 90" d="M245.895,258.81s-4.9,6.258-6.258,11.334-6.258,23-7.269,24.356-4.237,5.925-7.28,8.119-13.119,6.215-16.84,9.431-1.936,4.774-3.452,7.312,5.377,4.065,6.925,4.065,12.689-.677,18.947-2.871,16.076-14.549,16.41-15.227,2.151-11.829,2.71-24.733S252.347,258.81,245.895,258.81Z" transform="translate(-131.403 -209.146)" fill="#fff"/>
    <g id="Group_54" data-name="Group 54" transform="translate(73.175 49.664)" clip-path="url(#clip-path-3)">
      <path id="Path_91" data-name="Path 91" d="M249.888,267.769c-.108-.893-.172-1.409-.172-1.409l-6.291,4.9a18.646,18.646,0,0,0-2.549,10.753c.323,6.656,1.9,11.108.957,11.108s-4.129-3.817-4.129,0,2.226,6.656,2.86,8.882-7.936-7.3-6.979-4.129,5.076,6.99,4.753,8.893-5.377-6.667-7.3-4.441-.312,6.022-2.215,6.656c-1.591.538-14.915,10.366-16.3,13.775,3.516-.194,12.291-.968,17.571-2.817,6.258-2.2,16.076-14.549,16.41-15.227s2.151-11.829,2.71-24.733C249.393,275.361,249.78,271.178,249.888,267.769Z" transform="translate(-203.98 -258.241)" opacity="0.2"/>
    </g>
    <path id="Path_93" data-name="Path 93" d="M245.895,258.81s-4.9,6.258-6.258,11.334-6.258,23-7.269,24.356-4.237,5.925-7.28,8.119-13.119,6.215-16.84,9.431-1.936,4.774-3.452,7.312,5.377,4.065,6.925,4.065,12.689-.677,18.947-2.871,16.076-14.549,16.41-15.227,2.151-11.829,2.71-24.733S252.347,258.81,245.895,258.81Z" transform="translate(-131.403 -209.146)" fill="none" stroke="#263238" stroke-linecap="round" stroke-linejoin="round" stroke-width="1"/>
    <path id="Path_94" data-name="Path 94" d="M242.109,302.126s-9.033-10.205-9.323-7.871,6.119,7.871,6.119,10.5-9.323-7.581-10.2-4.667a3.387,3.387,0,0,0,2.043,4.086" transform="translate(-129.596 -206.502)" fill="none" stroke="#263238" stroke-linecap="round" stroke-linejoin="round" stroke-width="1"/>
    <path id="Path_95" data-name="Path 95" d="M213.946,308.89s-5.226-1.925-7.431,0-10.463,8.807-7.151,10.753,9.226,1.989,11.28.28a17.52,17.52,0,0,1,3.86-2.473s-.828,3.022,1.925,1.376,5.226-7.162,3.57-8.538S213.946,308.89,213.946,308.89Z" transform="translate(-131.855 -205.438)" fill="#263238" stroke="#263238" stroke-linecap="round" stroke-linejoin="round" stroke-width="1"/>
    <path id="Path_96" data-name="Path 96" d="M241.275,258.9a169.237,169.237,0,0,0-1,19.969c.29,8.6,1.86,25.55.15,30.97s-1.57,10.269,1.71,12.42,18.281,4.56,27.679,3.28,14.99-2.86,15.56-6.452,1-34.54-.721-45.809-5.129-21.829-8.6-25.26-6.99-2.151-15.7,1.29S243.706,255.474,241.275,258.9Z" transform="translate(-128.784 -210.111)" fill="#fff" stroke="#263238" stroke-linecap="round" stroke-linejoin="round" stroke-width="1"/>
    <path id="Path_97" data-name="Path 97" d="M259.38,273.12s-8.119,5.076-19.539,0c0,0-.505,5.377.258,5.377a35.979,35.979,0,0,0,10.915,1.516c7.355,0,10.14-1.774,10.14-1.774Z" transform="translate(-128.759 -208.068)" fill="#263238" stroke="#263238" stroke-linecap="round" stroke-linejoin="round" stroke-width="1"/>
    <path id="Path_98" data-name="Path 98" d="M257.516,256.5s-3.291,8.119-2.538,15.474,3.3,13.453,10.657,13.453,13.452-15.99,13.711-24.872-2.8-12.678-9.9-12.678S257.516,256.5,257.516,256.5Z" transform="translate(-127.615 -209.97)" fill="#263238" stroke="#263238" stroke-linecap="round" stroke-linejoin="round" stroke-width="1"/>
    <path id="Path_99" data-name="Path 99" d="M239.82,258.151s4.3,8.6,5.377,10.28,1.28,1,2.419.43,21.98-18.55,23.84-19.27,5.56,1,5.85-.85-7.71-13.42-9.99-15.27-6.85,5.129-7.99,5.7-1.57,0-3.57.43S243.53,252.871,239.82,258.151Z" transform="translate(-128.748 -211.079)" fill="#fff"/>
    <g id="Group_55" data-name="Group 55" transform="translate(111.072 22.082)" clip-path="url(#clip-path-4)">
      <path id="Path_100" data-name="Path 100" d="M266.87,233.472c-2.29-1.86-6.85,5.129-7.99,5.7s-1.57,0-3.57.43c-1.161.247-5.14,4.721-8.99,9.452l2.151,12.1s9.882-4.57,12.743-6.022a93.24,93.24,0,0,0-7.6,8.517c6.635-5.549,16.13-13.581,17.41-14.055,1.85-.71,5.559,1,5.85-.85S269.149,235.322,266.87,233.472Z" transform="translate(-239.33 -233.161)" opacity="0.2"/>
    </g>
    <path id="Path_102" data-name="Path 102" d="M239.82,258.151s4.3,8.6,5.377,10.28,1.28,1,2.419.43,21.98-18.55,23.84-19.27,5.56,1,5.85-.85-7.71-13.42-9.99-15.27-6.85,5.129-7.99,5.7-1.57,0-3.57.43S243.53,252.871,239.82,258.151Z" transform="translate(-128.748 -211.079)" fill="none" stroke="#263238" stroke-linecap="round" stroke-linejoin="round" stroke-width="1"/>
    <path id="Path_103" data-name="Path 103" d="M254.41,249.674s13.732-9.624,9.076-9.624-5.248,5.828-5.248,5.828" transform="translate(-127.649 -210.56)" fill="none" stroke="#263238" stroke-linecap="round" stroke-linejoin="round" stroke-width="1"/>
    <path id="Path_104" data-name="Path 104" d="M243.93,256.67l4.71,3.85a118.987,118.987,0,0,0,6.56-10.99l-2.419-7.99Z" transform="translate(-128.439 -210.448)" fill="#fff"/>
    <g id="Group_56" data-name="Group 56" transform="translate(115.491 31.093)" clip-path="url(#clip-path-5)">
      <path id="Path_105" data-name="Path 105" d="M243.93,256.67l4.71,3.85a118.987,118.987,0,0,0,6.56-10.99l-2.419-7.99Z" transform="translate(-243.93 -241.54)" fill="#fff"/>
      <path id="Path_106" data-name="Path 106" d="M243.93,256.67l4.71,3.85a118.987,118.987,0,0,0,6.56-10.99l-2.419-7.99Z" transform="translate(-243.93 -241.54)" fill="#fff" opacity="0.5"/>
    </g>
    <path id="Path_108" data-name="Path 108" d="M243.93,256.67l4.71,3.85a118.987,118.987,0,0,0,6.56-10.99l-2.419-7.99Z" transform="translate(-128.439 -210.448)" fill="none" stroke="#263238" stroke-linecap="round" stroke-linejoin="round" stroke-width="1"/>
    <path id="Path_109" data-name="Path 109" d="M230.263,219.265a17.582,17.582,0,0,0-3.753,10.753c0,7.14,3.14,17.84,5.28,22.26s7.527,10.56,10.13,10.753,8.99-9.678,10.27-12.13a15.054,15.054,0,0,0,1.57-4.14s3.71-1.71,3.28-8.6-3.14-17.13-2.419-18.84,3.99-4.99,3.28-6.14-2.151-.28-3.71.57-7.527-.419-11.99,0a22.765,22.765,0,0,0-8.474,2.581,11.9,11.9,0,0,0-3.463,2.936Z" transform="translate(-129.751 -212.626)" fill="#fff"/>
    <g id="Group_57" data-name="Group 57" transform="translate(96.759)" clip-path="url(#clip-path-6)">
      <path id="Path_110" data-name="Path 110" d="M241.17,262.938c2.742-.559,8.721-9.743,9.958-12.076a15.055,15.055,0,0,0,1.57-4.14s3.71-1.71,3.28-8.6-3.14-17.13-2.42-18.84,3.989-4.99,3.28-6.14a1.161,1.161,0,0,0-1.366-.495,60.843,60.843,0,0,0-10.592,9.968c-4.387,5.667-.258,13.657-.258,13.657s2.828,7.216,2.312,12.366C246.514,252.819,243.719,259.088,241.17,262.938Z" transform="translate(-225.406 -212.629)" fill="#fff"/>
      <path id="Path_111" data-name="Path 111" d="M241.17,262.938c2.742-.559,8.721-9.743,9.958-12.076a15.055,15.055,0,0,0,1.57-4.14s3.71-1.71,3.28-8.6-3.14-17.13-2.42-18.84,3.989-4.99,3.28-6.14a1.161,1.161,0,0,0-1.366-.495,60.843,60.843,0,0,0-10.592,9.968c-4.387,5.667-.258,13.657-.258,13.657s2.828,7.216,2.312,12.366C246.514,252.819,243.719,259.088,241.17,262.938Z" transform="translate(-225.406 -212.629)" fill="#fff" opacity="0.5"/>
    </g>
    <path id="Path_113" data-name="Path 113" d="M230.263,219.265a17.582,17.582,0,0,0-3.753,10.753c0,7.14,3.14,17.84,5.28,22.26s7.527,10.56,10.13,10.753,8.99-9.678,10.27-12.13a15.054,15.054,0,0,0,1.57-4.14s3.71-1.71,3.28-8.6-3.14-17.13-2.419-18.84,3.99-4.99,3.28-6.14-2.151-.28-3.71.57-7.527-.419-11.99,0a22.765,22.765,0,0,0-8.474,2.581,11.9,11.9,0,0,0-3.463,2.936Z" transform="translate(-129.751 -212.626)" fill="none" stroke="#263238" stroke-linecap="round" stroke-linejoin="round" stroke-width="1"/>
    <path id="Path_114" data-name="Path 114" d="M233.971,239.82a7.634,7.634,0,0,1-1.28,3.71c-1.14,1.419-.57,2.419,1.14,2.28a4.6,4.6,0,0,0,2.71-1.14" transform="translate(-129.33 -210.577)" fill="none" stroke="#263238" stroke-linecap="round" stroke-linejoin="round" stroke-width="1"/>
    <path id="Path_115" data-name="Path 115" d="M234.447,234.361s-11.28,1.764-12.28,3.484,5.99,8.14,8.14,6.99,3.71-5.473,5.377-5.377,5.28,3.57,8.42,3,6.85-7.85,6.57-9.28S238.017,233.511,234.447,234.361Z" transform="translate(-130.086 -211.118)" fill="#263238" stroke="#263238" stroke-linecap="round" stroke-linejoin="round" stroke-width="1"/>
    <path id="Path_116" data-name="Path 116" d="M240.717,236.626c-5.689-2.656-7.592,0-11.764,3.42a13.775,13.775,0,0,1-4.043,2.2c1.882,1.645,4.119,2.936,5.183,2.366,2.151-1.14,3.71-5.473,5.377-5.377s5.28,3.57,8.42,3c1.721-.312,3.6-2.635,4.914-4.9A14.486,14.486,0,0,1,240.717,236.626Z" transform="translate(-129.872 -210.899)" fill="#fff" stroke="#263238" stroke-linecap="round" stroke-linejoin="round" stroke-width="1"/>
    <path id="Path_117" data-name="Path 117" d="M235,248.38a7.108,7.108,0,0,0,7.7-2.86" transform="translate(-129.112 -210.148)" fill="none" stroke="#263238" stroke-linecap="round" stroke-linejoin="round" stroke-width="1"/>
    <path id="Path_118" data-name="Path 118" d="M248.71,231.59s1.419,6.85,1,8.42,1.14.43,1.71-2.28a21.7,21.7,0,0,0,.57-3.721A7.829,7.829,0,0,0,248.71,231.59Z" transform="translate(-128.079 -211.197)" fill="#fff" stroke="#263238" stroke-linecap="round" stroke-linejoin="round" stroke-width="1"/>
    <path id="Path_119" data-name="Path 119" d="M257.942,213.178c-.71-1.14-2.151-.28-3.71.57s-7.527-.419-11.99,0a22.764,22.764,0,0,0-8.474,2.581,11.9,11.9,0,0,0-3.506,2.936,17.582,17.582,0,0,0-3.753,10.753,36.87,36.87,0,0,0,.376,4.9c4.065-2.936,15.238-8.538,30.174,3.979v-.742c-.419-6.85-3.14-17.13-2.42-18.84S258.652,214.329,257.942,213.178Z" transform="translate(-129.751 -212.625)" fill="#263238"/>
    <g id="Group_58" data-name="Group 58" transform="translate(96.759 0.005)" clip-path="url(#clip-path-7)">
      <path id="Path_120" data-name="Path 120" d="M239.412,215.867c4.022-.731,5.463-.226,5.968.14a1.076,1.076,0,0,1,.43.72c.333,2.678,2.957,2.678,5.99,2.678a3.107,3.107,0,0,1,2.086.86,2.829,2.829,0,0,1,.118-1.075c0-.065.064-.129.1-.2a4.086,4.086,0,0,0-2.3-.72c-3.14,0-4.667-.075-4.861-1.678a2.151,2.151,0,0,0-.882-1.495c-1.172-.86-3.42-.979-6.85-.355-1.452.269-1.85.129-2.333-.118-.559.172-1.075.366-1.635.581a4.948,4.948,0,0,1,1.075.4,4.172,4.172,0,0,0,3.1.269Z" transform="translate(-225.852 -212.501)" fill="#fff"/>
      <path id="Path_121" data-name="Path 121" d="M255.692,232.678c-1.753-3.925-2.817-4.065-4.818-3.441l-.473.14c-1.764.505-3.624.8-5.377-1.678s-4.721-2.678-8.108-.419c-1.721,1.151-2.247.957-3.807.409-.409-.151-.871-.312-1.419-.484-1.871-.559-3.85.968-5.151,2.3a11.726,11.726,0,0,0,.075,1.613c1.14-1.366,3.226-3.291,4.742-2.817.538.161.979.312,1.376.452a4.3,4.3,0,0,0,4.807-.527c2.011-1.333,4.785-2.409,6.56.129,2.054,2.936,4.484,2.721,6.592,2.151l.495-.151c1.4-.43,1.914-.591,3.452,2.828A8.271,8.271,0,0,0,257,236.41a15.41,15.41,0,0,0-.183-1.8A9.373,9.373,0,0,1,255.692,232.678Z" transform="translate(-226.508 -211.645)" fill="#fff"/>
      <path id="Path_122" data-name="Path 122" d="M251.207,213.93a11.727,11.727,0,0,1-1.387,0,6.667,6.667,0,0,0,4.646,2.86c.247-.344.505-.7.731-1.075A6.516,6.516,0,0,1,251.207,213.93Z" transform="translate(-224.754 -212.532)" fill="#fff"/>
      <path id="Path_123" data-name="Path 123" d="M230.954,222.261a2.086,2.086,0,0,1,1.462.43c.7.484,1.312.753,3.334.086.839-.28,1.624-.624,2.376-.946,2.387-1.075,3.8-1.57,4.893-.312,1.979,2.258,3.226,2.914,5.592,2.914h1.237c2.075-.086,3.463-.065,3.947,1.075a6.73,6.73,0,0,0,1.871,2.366c-.118-.688-.237-1.355-.355-2.011a4.065,4.065,0,0,1-.473-.806c-.828-1.914-3.065-1.817-5.033-1.731h-1.194c-1.893,0-2.85-.366-4.731-2.516-1.71-1.946-3.893-1-6.2,0-.731.312-1.495.645-2.28.9-1.634.548-1.925.344-2.333.065a3.226,3.226,0,0,0-2.151-.634,5.172,5.172,0,0,0-2.893,1.237,17.2,17.2,0,0,0-.828,2.258C228.373,223.455,229.835,222.261,230.954,222.261Z" transform="translate(-226.459 -212.099)" fill="#fff"/>
    </g>
    <path id="Path_125" data-name="Path 125" d="M257.942,213.178c-.71-1.14-2.151-.28-3.71.57s-7.527-.419-11.99,0a22.764,22.764,0,0,0-8.474,2.581,11.9,11.9,0,0,0-3.506,2.936,17.582,17.582,0,0,0-3.753,10.753,36.87,36.87,0,0,0,.376,4.9c4.065-2.936,15.238-8.538,30.174,3.979v-.742c-.419-6.85-3.14-17.13-2.42-18.84S258.652,214.329,257.942,213.178Z" transform="translate(-129.751 -212.625)" fill="none" stroke="#263238" stroke-linecap="round" stroke-linejoin="round" stroke-width="1"/>
    <path id="Path_126" data-name="Path 126" d="M231.5,307.741a41.178,41.178,0,0,1-7.775-1.355c-3.226-1.011-4.9-1.688-6.764-.333s-6.452,8.6-6.775,10.151,1.075,2.71,1.7,2.151,6.452-4.56,6.452-4.56a11.828,11.828,0,0,0,5.248,2.538,6.452,6.452,0,0,0,4.57-1.194l3.226.516Z" transform="translate(-130.985 -205.644)" fill="#263238" stroke="#263238" stroke-linecap="round" stroke-linejoin="round" stroke-width="1"/>
    <path id="Path_127" data-name="Path 127" d="M278.344,253.248s-4.226-4.237-11.829,2.022-5.377,18.614-5.237,23.657,2.022,17.926,2.022,20.636v4.4s-9.979,4.4-13.861,5.581-11.506,1.355-13.194,1.688-5.925-1.516-6.936.344-3.043,8.958-.344,10.14,16.238,1.355,25.711,1.355,24.023-2.366,27.41-4.4,2.7-13.7,2.7-21.647-.172-25.539-1.516-32.819S279.7,254.6,278.344,253.248Z" transform="translate(-129.668 -209.671)" fill="#fff"/>
    <g id="Group_59" data-name="Group 59" transform="translate(97.952 42.175)" clip-path="url(#clip-path-8)">
      <path id="Path_128" data-name="Path 128" d="M282.865,264.237c-1.355-7.269-3.559-9.678-4.914-10.99,0,0-2.312-2.3-6.581-.979l-.28.409s6.667.957,5.377,3.807-12.377,11.743-12.377,11.743,6.344-3.807,12.055-4.119,2.226,3.484-.946,4.119,8.882,1.592,4.119,2.86-9.517-.634-7.3,2.538,11.119,4.129,8.6,7.3-10.753,6.344-8.882,11.108,10.474,3.807,10.474,6.667-2.226,4.129-6.344,4.764,7.377,1.194,4.635,5.516-5.9-2.032-10.99,1.14-7.613,8.893-14.915,9.527-13.012,0-18.722,1.9c-1.075.344-2.065.667-3.043.946,5.452.516,14.528.6,21.507.6,9.474,0,24.023-2.366,27.41-4.4s2.7-13.7,2.7-21.647S284.21,271.517,282.865,264.237Z" transform="translate(-227.227 -251.846)" opacity="0.2"/>
    </g>
    <path id="Path_130" data-name="Path 130" d="M278.344,253.248s-4.226-4.237-11.829,2.022-5.377,18.614-5.237,23.657,2.022,17.926,2.022,20.636v4.4s-9.979,4.4-13.861,5.581-11.506,1.355-13.194,1.688-5.925-1.516-6.936.344-3.043,8.958-.344,10.14,16.238,1.355,25.711,1.355,24.023-2.366,27.41-4.4,2.7-13.7,2.7-21.647-.172-25.539-1.516-32.819S279.7,254.6,278.344,253.248Z" transform="translate(-129.668 -209.671)" fill="none" stroke="#263238" stroke-linecap="round" stroke-linejoin="round" stroke-width="1"/>
    <path id="Path_131" data-name="Path 131" d="M262.85,300.74s7.872.29,12.237,5.538" transform="translate(-127.013 -205.988)" fill="none" stroke="#263238" stroke-linecap="round" stroke-linejoin="round" stroke-width="1"/>
    <path id="Path_132" data-name="Path 132" d="M263.181,300s7.581-2.334,11.657-.581,7.872-1.172,1.172-3.495-12.076.419-13.7,2.624" transform="translate(-127.054 -206.417)" fill="none" stroke="#263238" stroke-linecap="round" stroke-linejoin="round" stroke-width="1"/>
    <path id="Path_133" data-name="Path 133" d="M276.069,260.391s-2.334-2.624-9.624,3.226-5.538,9.323-.871,6.99,12.818-5.237,13.409-1.742-8.162,1.742-6.452,3.785,5.828,2.043,5.828,2.043" transform="translate(-127.114 -209.072)" fill="none" stroke="#263238" stroke-linecap="round" stroke-linejoin="round" stroke-width="1"/>
    <rect id="Rectangle_16" data-name="Rectangle 16" width="51.756" height="2.366" transform="translate(53.111 114.453)" fill="#fff" stroke="#263238" stroke-linecap="round" stroke-linejoin="round" stroke-width="1"/>
    <rect id="Rectangle_17" data-name="Rectangle 17" width="28.249" height="2.366" transform="translate(53.111 114.453)" fill="#fff" stroke="#263238" stroke-linecap="round" stroke-linejoin="round" stroke-width="1"/>
    <path id="Path_134" data-name="Path 134" d="M186.726,320.85,175.22,295.3h30.959l8.8,25.55Z" transform="translate(-133.615 -206.397)" fill="#fff" stroke="#263238" stroke-linecap="round" stroke-linejoin="round" stroke-width="1"/>
    <path id="Path_135" data-name="Path 135" d="M260.344,413.952s-31.97-36.562-35.013-36.562-74.6,13.7-77.134,17.205-11.667,21.819-11.667,21.819H264.915Z" transform="translate(-136.53 -200.213)" fill="#fff"/>
    <g id="Group_60" data-name="Group 60" transform="translate(0 177.177)" clip-path="url(#clip-path-9)">
      <path id="Path_136" data-name="Path 136" d="M227.948,375.346l35.357,37.314,6.689,5.893-137.514-.785L148.2,392.229l74.639-17.291S224.443,374.163,227.948,375.346Z" transform="translate(-136.835 -377.594)" opacity="0.21"/>
      <path id="Path_137" data-name="Path 137" d="M219.679,383.657c0,1.323-2.151,2.387-4.85,2.387s-4.839-1.075-4.839-2.387,2.151-2.387,4.839-2.387S219.679,382.335,219.679,383.657Z" transform="translate(-130.996 -377.098)" fill="#fff"/>
      <path id="Path_138" data-name="Path 138" d="M193.306,398.365c0,3.43-3.753,6.215-8.388,6.215s-8.4-2.785-8.4-6.215,3.753-6.2,8.4-6.2S193.306,394.945,193.306,398.365Z" transform="translate(-133.517 -376.277)" fill="#fff"/>
      <path id="Path_139" data-name="Path 139" d="M218.1,389.885c0,3.42-3.764,6.2-8.4,6.2s-8.4-2.785-8.4-6.2,3.764-6.215,8.4-6.215S218.1,386.455,218.1,389.885Z" transform="translate(-131.65 -376.917)" fill="#fff"/>
      <path id="Path_140" data-name="Path 140" d="M199.559,392.73c0,1.817-2.043,3.291-4.559,3.291s-4.559-1.473-4.559-3.291,2.043-3.28,4.559-3.28S199.559,390.913,199.559,392.73Z" transform="translate(-132.469 -376.482)" fill="#fff"/>
      <ellipse id="Ellipse_9" data-name="Ellipse 9" cx="4.559" cy="3.291" rx="4.559" ry="3.291" transform="translate(63.262 6.387)" fill="#fff"/>
      <ellipse id="Ellipse_10" data-name="Ellipse 10" cx="4.559" cy="3.291" rx="4.559" ry="3.291" transform="translate(56.509 8.312)" fill="#fff"/>
      <path id="Path_141" data-name="Path 141" d="M160.01,399.52c0,1.817-2.043,3.29-4.559,3.29s-4.57-1.473-4.57-3.29,2.043-3.28,4.57-3.28S160.01,397.7,160.01,399.52Z" transform="translate(-135.449 -375.97)" fill="#fff"/>
      <path id="Path_142" data-name="Path 142" d="M170.344,394.379c0,1.409-1.968,2.559-4.387,2.559s-4.377-1.151-4.377-2.559,1.957-2.559,4.377-2.559S170.344,392.971,170.344,394.379Z" transform="translate(-134.643 -376.303)" fill="#fff"/>
      <path id="Path_143" data-name="Path 143" d="M246.128,398.034l-.269.065L225.331,377.42l-9.076,21.249-43.282,6.258-36.443,11.56H264.915l-4.57-2.538S253.667,406.325,246.128,398.034Z" transform="translate(-136.53 -377.388)" opacity="0.1"/>
    </g>
    <path id="Path_145" data-name="Path 145" d="M260.344,413.952s-31.97-36.562-35.013-36.562-74.6,13.7-77.134,17.205-11.667,21.819-11.667,21.819H264.915Z" transform="translate(-136.53 -200.213)" fill="none" stroke="#263238" stroke-linecap="round" stroke-linejoin="round" stroke-width="1"/>
  </g>
</svg>
