<svg xmlns="http://www.w3.org/2000/svg" width="36.52" height="53.079" viewBox="0 0 36.52 53.079">
  <g id="hot-sale" transform="translate(-77.54 0)">
    <path id="Path_1" data-name="Path 1" d="M118.106,31.656c-.058-.119-.159-.4-.285-.749-.42-1.167-1.224-1.038-1.224-1.038s.163.273-.109.981c-.082.484-2.85,4.082-3.351,3.155a.437.437,0,0,1-.043-.258,27.5,27.5,0,0,0,.159-4.136,32.808,32.808,0,0,0-6.672-18.5l-.034-.043-.193-.247h0q-.261-.33-.531-.653c-.467-.557-.7-.085-1.212-.606a.283.283,0,0,0-.483.168c-.589,5.3-1.83,7.341-3.172,8.988-1.7,1.819-4.281,3.956-5.344,6.816a22.661,22.661,0,0,0-1.691,3.451.288.288,0,0,1-.486.119,9.889,9.889,0,0,1-2.143-4.92c-.106-.617-.493-.134-.483-.65a.188.188,0,0,0-.321-.13c-5.451,5.419-7.151,12.954-6.162,20.861a28.251,28.251,0,0,0,.545,3.871A18.061,18.061,0,0,0,92.4,58.169c3.1,2.175,6.5,3.674,10.5,3.309h0a18.053,18.053,0,0,0,16.687-15.9,29.035,29.035,0,0,0-1.474-13.919Z" transform="translate(-5.825 -8.467)" fill="#f9af38"/>
    <g id="Group_5" data-name="Group 5" transform="translate(77.54 13.808)">
      <path id="Path_2" data-name="Path 2" d="M96.664,168.552A17.944,17.944,0,0,1,78.528,155.2a29.46,29.46,0,0,1-.792-3.941A26.984,26.984,0,0,1,85,129.373a.188.188,0,0,1,.321.13,9.384,9.384,0,0,0,.148,1.723,27.33,27.33,0,0,0-5.6,20.029,29.46,29.46,0,0,0,.792,3.941A18.056,18.056,0,0,0,96.664,168.552Z" transform="translate(-77.54 -129.317)" fill="#f48931"/>
      <path id="Path_3" data-name="Path 3" d="M358.22,240.741l.029,0h-.03Z" transform="translate(-328.247 -228.843)" fill="#f48931"/>
      <path id="Path_4" data-name="Path 4" d="M188.427,148.791c-.164.318-.316.636-.457.951v0C188.11,149.425,188.262,149.108,188.427,148.791Z" transform="translate(-176.177 -146.712)" fill="#f48931"/>
    </g>
    <path id="Path_5" data-name="Path 5" d="M162.653,187.978c-.235-.6-.3-.775-.445-1.072a.123.123,0,0,0-.231.03,5.678,5.678,0,0,1-.3,1.179,6.191,6.191,0,0,1-1.607,2.173.182.182,0,0,1-.269-.018.247.247,0,0,1-.041-.14,21.109,21.109,0,0,0-4.257-14.9l-.022-.027-.042-.055a14.624,14.624,0,0,0-1.277-1.356.185.185,0,0,0-.316.11c-.386,3.474-1.005,5.308-1.883,6.386-.855,1.051-1.733,1.343-2.714,2.843a11.728,11.728,0,0,0-1.649,3.726c-.035.146-.609.271-.707.157a5.694,5.694,0,0,1-.894-1.425,6.861,6.861,0,0,1-.411-1.243c-.154-.67-.373-.787-.377-1.2a.123.123,0,0,0-.211-.085c-3.8,3.779-4.926,9.241-3.89,14.686,1.443,7.583,7.245,10.53,11.451,10.465.184,0,.418.034.664.015,2.6-.2,8.33-1.531,10.433-8.779a17.76,17.76,0,0,0-.566-10.64A5.175,5.175,0,0,0,162.653,187.978Z" transform="translate(-56.46 -155.188)" fill="#df646e"/>
    <path id="Path_6" data-name="Path 6" d="M205.31,275.831l-.371.961C205.045,276.48,205.168,276.158,205.31,275.831Z" transform="translate(-113.796 -246.377)" fill="#dc4955"/>
    <path id="Path_7" data-name="Path 7" d="M149.551,281.871c-.27.03-.529.023-.722.037a12.3,12.3,0,0,1-12-10.343,17.665,17.665,0,0,1,4.6-15.334.123.123,0,0,1,.21.085,7.947,7.947,0,0,0,.2,1.682,17.9,17.9,0,0,0-3.084,13.567A12.378,12.378,0,0,0,149.551,281.871Z" transform="translate(-52.707 -228.838)" fill="#dc4955"/>
    <g id="Group_9" data-name="Group 9" transform="translate(89.029 34.873)">
      <g id="Group_6" data-name="Group 6" transform="translate(3.763 0.562)">
        <path id="Path_8" data-name="Path 8" d="M221.183,343.989a.8.8,0,0,1-.735-1.119l4.557-10.538a.8.8,0,0,1,1.47.636l-4.557,10.538a.8.8,0,0,1-.735.483Z" transform="translate(-220.382 -331.849)" fill="#f5fcff"/>
      </g>
      <g id="Group_7" data-name="Group 7" transform="translate(0)">
        <path id="Path_9" data-name="Path 9" d="M187.9,332.752h-.028a3.1,3.1,0,0,1,.039-6.164h.027a2.612,2.612,0,0,1,1.985.968,3.35,3.35,0,0,1-.046,4.271A2.614,2.614,0,0,1,187.9,332.752Zm.011-4.562a1.526,1.526,0,0,0-.022,2.961,1.021,1.021,0,0,0,.785-.381,1.751,1.751,0,0,0,.024-2.181,1.036,1.036,0,0,0-.777-.4Z" transform="translate(-185.14 -326.588)" fill="#f5fcff"/>
      </g>
      <g id="Group_8" data-name="Group 8" transform="translate(8.011 7.325)">
        <path id="Path_10" data-name="Path 10" d="M262.921,401.352h-.027a3.1,3.1,0,0,1,.039-6.164h.027a2.94,2.94,0,0,1,2.731,3.112h0a2.944,2.944,0,0,1-2.77,3.052Zm.012-4.562a1.522,1.522,0,1,0,1.156,1.493h0a1.352,1.352,0,0,0-1.146-1.493Zm1.957,1.5h0Z" transform="translate(-260.163 -395.188)" fill="#f5fcff"/>
      </g>
    </g>
    <path id="Path_11" data-name="Path 11" d="M165.717,5.465a5.534,5.534,0,0,1-2.185,3.394.213.213,0,0,1-.318-.061,5.4,5.4,0,0,1-.822-3.92,5.638,5.638,0,0,1,.222-1.32A7.776,7.776,0,0,1,164.7.99a.213.213,0,0,1,.318.061,7.707,7.707,0,0,1,1.008,3.225A5.425,5.425,0,0,1,165.717,5.465Z" transform="translate(-75.709 -0.843)" fill="#df646e"/>
    <path id="Path_12" data-name="Path 12" d="M164.453,26.522a6.975,6.975,0,0,1-2.491,3.806.213.213,0,0,1-.318-.06,6.966,6.966,0,0,1-.933-4.447,5.1,5.1,0,0,1,.46-1.339,7.708,7.708,0,0,0,1.007,3.224.213.213,0,0,0,.318.06,7.813,7.813,0,0,0,2.031-2.465A5,5,0,0,1,164.453,26.522Z" transform="translate(-74.215 -21.867)" fill="#dc4955"/>
    <path id="Path_13" data-name="Path 13" d="M385.391,72.622a4.93,4.93,0,0,1-.854,3.708.213.213,0,0,1-.3.065,6.489,6.489,0,0,1-2.505-3.871,6.656,6.656,0,0,1,1-3.217.213.213,0,0,1,.3-.065,6.93,6.93,0,0,1,2.08,2.189A4.2,4.2,0,0,1,385.391,72.622Z" transform="translate(-271.709 -61.815)" fill="#df646e"/>
    <path id="Path_14" data-name="Path 14" d="M384.654,95.309a.214.214,0,0,1-.3.065,6.053,6.053,0,0,1-2.531-3.353,4.086,4.086,0,0,1-.083-1.08,6.919,6.919,0,0,0,2.08,2.19.214.214,0,0,0,.3-.065,6.783,6.783,0,0,0,1-3.016,4.207,4.207,0,0,1,.451,1.163A6.037,6.037,0,0,1,384.654,95.309Z" transform="translate(-271.712 -80.435)" fill="#dc4955"/>
    <path id="Path_15" data-name="Path 15" d="M208.026,173.154a10.62,10.62,0,0,1-2.03,4.938c-.855,1.051-1.647,1.391-2.628,2.891a13.619,13.619,0,0,0-1.2,2.678,2.134,2.134,0,0,1-2.006,1.421l-.539,0c.365-.165.325-1.038.568-1.479a12.2,12.2,0,0,1,1.259-2.623c.981-1.5,1.773-1.84,2.628-2.891.878-1.079,1.86-2.949,2.247-6.423a.185.185,0,0,1,.316-.11c.429.441.839.9,1.225,1.387l.164.208Z" transform="translate(-109.044 -153.19)" fill="#dc4955"/>
    <path id="Path_16" data-name="Path 16" d="M323.821,295.52c-.012.023-.026.047-.04.071a3,3,0,0,1-2.6,1.459h-.494a.171.171,0,0,0,.109-.05,6.284,6.284,0,0,0,1.469-2.294,8.714,8.714,0,0,0,.357-1.184v0c.016-.073.031-.144.045-.21a.123.123,0,0,1,.231-.031c.146.3.36.761.6,1.358h0C323.6,294.9,323.712,295.2,323.821,295.52Z" transform="translate(-217.186 -261.9)" fill="#dc4955"/>
    <path id="Path_17" data-name="Path 17" d="M358.249,240.743h-.03v0Z" transform="translate(-250.708 -215.034)" fill="#f48931"/>
    <g id="Group_10" data-name="Group 10" transform="translate(87.855 0)">
      <path id="Path_18" data-name="Path 18" d="M184.34.252c-.589,5.3-2.09,8.16-3.431,9.807-1.7,1.82-4.23,3.921-5.292,6.781v0c-.246.55-.471,1.143-.671,1.736v0c-.031.092-.059.185-.091.277h0c-.185.575-.345,1.145-.47,1.671a.253.253,0,0,1-.243.205h.75a2.133,2.133,0,0,0,2.045-1.519,22.651,22.651,0,0,1,.817-2.369v0c1.062-2.86,3.593-4.961,5.292-6.781,1.213-1.49,2.557-3.969,3.239-8.356q-.7-.836-1.461-1.619a.283.283,0,0,0-.483.168Z" transform="translate(-174.139 0)" fill="#f48931"/>
      <path id="Path_19" data-name="Path 19" d="M361.3,186.132a13.208,13.208,0,0,1-.613,2.132,2.328,2.328,0,0,1-.168.437l-.032.068-.012.026c-.042.087-.088.181-.139.281l-.028.055c-.551,1.065-1.554,2.68-2.068,2.687l-.015.027h.107a4.268,4.268,0,0,0,3.357-1.7,9.807,9.807,0,0,0,1.022-1.565C362.285,187.412,361.589,185.468,361.3,186.132Z" transform="translate(-338.563 -166.136)" fill="#f48931"/>
    </g>
  </g>
</svg>
