<svg xmlns="http://www.w3.org/2000/svg" width="100" height="100" viewBox="0 0 100 100">
  <g id="Category" transform="translate(-38 -119)">
    <rect id="Rectangle_4" data-name="Rectangle 4" width="100" height="100" rx="16" transform="translate(38 119)" fill="#9bf1ff"/>
    <g id="ICON" transform="translate(5 -135)">
      <circle id="Ellipse_1" data-name="Ellipse 1" cx="25" cy="25" r="25" transform="translate(58 279)" fill="#dbf9fe"/>
      <path id="bed" d="M29.645,91.71H29.29V88.871a1.421,1.421,0,0,0-1.419-1.419V81.419A1.421,1.421,0,0,0,26.452,80h-14.9a1.421,1.421,0,0,0-1.419,1.419v6.032A1.421,1.421,0,0,0,8.71,88.871V91.71H8.355A.355.355,0,0,0,8,92.065v1.419a.355.355,0,0,0,.355.355H8.71v1.419a.355.355,0,0,0,.355.355h1.065a.354.354,0,0,0,.348-.285l.3-1.489h16.45l.3,1.489a.354.354,0,0,0,.348.285h1.065a.355.355,0,0,0,.355-.355V93.839h.355A.355.355,0,0,0,30,93.484V92.065A.355.355,0,0,0,29.645,91.71ZM10.839,81.419a.711.711,0,0,1,.71-.71h14.9a.711.711,0,0,1,.71.71v6.032h-.71V86.032a1.421,1.421,0,0,0-1.419-1.419H20.774a1.421,1.421,0,0,0-1.419,1.419v1.419h-.71V86.032a1.421,1.421,0,0,0-1.419-1.419H12.968a1.421,1.421,0,0,0-1.419,1.419v1.419h-.71Zm14.9,4.613v1.419H20.065V86.032a.711.711,0,0,1,.71-.71h4.258a.711.711,0,0,1,.71.71Zm-7.806,0v1.419H12.258V86.032a.711.711,0,0,1,.71-.71h4.258A.711.711,0,0,1,17.935,86.032ZM9.419,88.871a.711.711,0,0,1,.71-.71H27.871a.711.711,0,0,1,.71.71V91.71H9.419ZM9.838,94.9H9.419V93.839h.632Zm18.743,0h-.419l-.213-1.064h.632Zm.71-1.774H8.71v-.71H29.29Z" transform="translate(64 216.194)"/>
    </g>
  </g>
</svg>
