<svg xmlns="http://www.w3.org/2000/svg" width="100" height="111" viewBox="0 0 100 111"><g transform="translate(-39 -113)"><rect width="100" height="111" rx="16" transform="translate(39 113)" fill="#b29bff"/><text transform="translate(63 211)" font-size="15" font-family="Roboto-Bold, Roboto" font-weight="700"><tspan x="0" y="0">DRINKS</tspan></text><g transform="translate(6 -144)"><circle cx="25" cy="25" r="25" transform="translate(58 279)" fill="#d3c6ff"/><g transform="translate(37.186 292.026)"><g transform="translate(46.749 21.109)"><g transform="translate(0)"><path d="M276.468,451.29a.468.468,0,1,0,.468.468A.468.468,0,0,0,276.468,451.29Z" transform="translate(-276 -451.29)"/></g></g><g transform="translate(40.177 9.368)"><g transform="translate(0)"><path d="M135.968,200.29a.468.468,0,0,0-.468.468v8.934a.468.468,0,0,0,.935,0v-8.934A.468.468,0,0,0,135.968,200.29Z" transform="translate(-135.5 -200.29)"/></g></g><g transform="translate(43.919 9.368)"><path d="M215.968,200.29a.468.468,0,0,0-.468.468v8.934a.468.468,0,0,0,.935,0v-8.934A.468.468,0,0,0,215.968,200.29Z" transform="translate(-215.5 -200.29)"/></g><g transform="translate(35.5)"><g transform="translate(0)"><path d="M53.789,7.531H51.45V6.115a2.331,2.331,0,0,0-.892-4.143,2.365,2.365,0,0,0-1.342.1A2.343,2.343,0,0,0,47.24.982a2.308,2.308,0,0,0-.882.174,4.186,4.186,0,0,0-6.393.742,4.219,4.219,0,0,0-4.466,4.2v5.613a1.417,1.417,0,0,0,1.427,1.4,1.4,1.4,0,0,0,.491-.089V21.61a2.341,2.341,0,0,0,2.339,2.339h9.355A2.341,2.341,0,0,0,51.45,21.61v-1.4h2.339a2.341,2.341,0,0,0,2.339-2.339v-8A2.341,2.341,0,0,0,53.789,7.531ZM50.515,21.142H49.087a.465.465,0,1,0,0,.931h1.347a1.41,1.41,0,0,1-1.323.94H39.756a1.405,1.405,0,0,1-1.323-.935h6.913a.468.468,0,1,0,0-.935H38.353V8.4a3.247,3.247,0,0,0,2.439-1.8.347.347,0,0,1,.248.1,2.806,2.806,0,0,0,3.985-.051.154.154,0,0,1,.111-.047c.728,0,1.2.156,1.416.462a1.57,1.57,0,0,1,.174.886V9.836a1.405,1.405,0,0,0,.935,1.323V18.77a.468.468,0,0,0,.935,0V11.159a1.405,1.405,0,0,0,.935-1.323V6.54a2.482,2.482,0,0,0,.982,0ZM49.277,5.47a.468.468,0,0,0-.68.417V9.836a.468.468,0,1,1-.935,0V7.944a2.381,2.381,0,0,0-.34-1.418,2.485,2.485,0,0,0-2.186-.866,1.094,1.094,0,0,0-.783.332,1.87,1.87,0,0,1-2.656.033,1.281,1.281,0,0,0-.9-.365.94.94,0,0,0-.839.524A2.318,2.318,0,0,1,37.881,7.5a.468.468,0,0,0-.464.468v3.72a.505.505,0,0,1-.491.49.486.486,0,0,1-.491-.468V6.094a3.282,3.282,0,0,1,3.293-3.267,3.337,3.337,0,0,1,.425.027.468.468,0,0,0,.467-.235,3.255,3.255,0,0,1,5.3-.578.468.468,0,0,0,.6.083,1.354,1.354,0,0,1,.726-.207,1.4,1.4,0,0,1,1.324.938.468.468,0,0,0,.7.234,1.4,1.4,0,0,1,2.146.835A1.437,1.437,0,0,1,49.277,5.47Zm2.173,4.867h1.871V17.4H51.45Zm3.742,7.531a1.4,1.4,0,0,1-1.4,1.4H51.45v-.935h2.339a.468.468,0,0,0,.468-.468v-8a.468.468,0,0,0-.468-.468H51.45V8.466h2.339a1.4,1.4,0,0,1,1.4,1.4Z" transform="translate(-35.5)"/></g></g></g></g></g></svg>