<svg xmlns="http://www.w3.org/2000/svg" width="100" height="111" viewBox="0 0 100 111">
  <g id="Category" transform="translate(-39 -113)">
    <rect id="Rectangle_4" data-name="Rectangle 4" width="100" height="111" rx="16" transform="translate(39 113)" fill="#ffc99b"/>
    <text id="FOOD" transform="translate(70 211)" font-size="15" font-family="Roboto-Bold, Roboto" font-weight="700"><tspan x="0" y="0">FOOD</tspan></text>
    <g id="ICON" transform="translate(6 -144)">
      <circle id="Ellipse_1" data-name="Ellipse 1" cx="25" cy="25" r="25" transform="translate(58 279)" fill="#ffe5ce"/>
      <g id="fast-food" transform="translate(65.031 289.534)">
        <g id="Group_12" data-name="Group 12" transform="translate(17.055 6.576)">
          <g id="Group_11" data-name="Group 11" transform="translate(0)">
            <path id="Path_23" data-name="Path 23" d="M209.194,123a.365.365,0,0,0-.264-.113H198.337a.365.365,0,0,0-.365.382l.264,5.673a.365.365,0,1,0,.73-.034l-.246-5.291h9.828l-.7,14.976h-8.2a.365.365,0,1,0,0,.731H208.2a.365.365,0,0,0,.365-.348l.731-15.706A.365.365,0,0,0,209.194,123Z" transform="translate(-197.972 -122.882)"/>
          </g>
        </g>
        <g id="Group_14" data-name="Group 14" transform="translate(7.924 20.091)">
          <g id="Group_13" data-name="Group 13" transform="translate(0)">
            <path id="Path_24" data-name="Path 24" d="M40.823,375.469H27.673a.365.365,0,0,0-.365.365,2.56,2.56,0,0,0,2.557,2.557h8.766a2.56,2.56,0,0,0,2.557-2.557A.365.365,0,0,0,40.823,375.469Zm-2.192,2.192H29.865a1.829,1.829,0,0,1-1.79-1.461H40.421A1.83,1.83,0,0,1,38.631,377.661Z" transform="translate(-27.308 -375.469)"/>
          </g>
        </g>
        <g id="Group_16" data-name="Group 16" transform="translate(6.828 17.899)">
          <g id="Group_15" data-name="Group 15">
            <path id="Path_25" data-name="Path 25" d="M21.439,334.509H8.289a1.461,1.461,0,0,0,0,2.922h13.15a1.461,1.461,0,0,0,0-2.922Zm0,2.192H8.289a.731.731,0,0,1,0-1.461h13.15a.731.731,0,0,1,0,1.461Z" transform="translate(-6.828 -334.509)"/>
          </g>
        </g>
        <g id="Group_18" data-name="Group 18" transform="translate(18.986 10.959)">
          <g id="Group_17" data-name="Group 17" transform="translate(0)">
            <path id="Path_26" data-name="Path 26" d="M237.6,204.8a3.651,3.651,0,0,0-3.537,2.737.365.365,0,1,0,.707.183,2.92,2.92,0,1,1,1.854,3.488.365.365,0,1,0-.244.688,3.653,3.653,0,1,0,1.219-7.1Z" transform="translate(-234.051 -204.802)"/>
          </g>
        </g>
        <g id="Group_20" data-name="Group 20" transform="translate(7.924 12.055)">
          <g id="Group_19" data-name="Group 19" transform="translate(0)">
            <path id="Path_27" data-name="Path 27" d="M34.979,225.282H33.517a6.216,6.216,0,0,0-6.21,6.21.365.365,0,0,0,.365.365h13.15a.365.365,0,0,0,.365-.365A6.217,6.217,0,0,0,34.979,225.282Zm-6.928,5.844a5.486,5.486,0,0,1,5.467-5.114h1.461a5.486,5.486,0,0,1,5.467,5.114Z" transform="translate(-27.308 -225.282)"/>
          </g>
        </g>
        <g id="Group_22" data-name="Group 22" transform="translate(11.211 14.246)">
          <g id="Group_21" data-name="Group 21" transform="translate(0)">
            <rect id="Rectangle_5" data-name="Rectangle 5" width="0.731" height="0.731"/>
          </g>
        </g>
        <g id="Group_24" data-name="Group 24" transform="translate(10.846 15.707)">
          <g id="Group_23" data-name="Group 23">
            <rect id="Rectangle_6" data-name="Rectangle 6" width="0.731" height="0.731"/>
          </g>
        </g>
        <g id="Group_26" data-name="Group 26" transform="translate(15.229 13.881)">
          <g id="Group_25" data-name="Group 25">
            <rect id="Rectangle_7" data-name="Rectangle 7" width="0.731" height="0.731"/>
          </g>
        </g>
        <g id="Group_28" data-name="Group 28" transform="translate(17.421 15.707)">
          <g id="Group_27" data-name="Group 27" transform="translate(0)">
            <rect id="Rectangle_8" data-name="Rectangle 8" width="0.731" height="0.731"/>
          </g>
        </g>
        <g id="Group_30" data-name="Group 30" transform="translate(14.133 16.073)">
          <g id="Group_29" data-name="Group 29">
            <rect id="Rectangle_9" data-name="Rectangle 9" width="0.731" height="0.731"/>
          </g>
        </g>
        <g id="Group_32" data-name="Group 32" transform="translate(15.96 5.115)">
          <g id="Group_31" data-name="Group 31" transform="translate(0)">
            <path id="Path_28" data-name="Path 28" d="M190.278,95.576H177.859a.365.365,0,0,0-.365.365V97.4a.365.365,0,0,0,.365.365h12.419a.365.365,0,0,0,.365-.365V95.941A.365.365,0,0,0,190.278,95.576Zm-.365,1.461H178.225v-.73h11.689Z" transform="translate(-177.494 -95.576)"/>
          </g>
        </g>
        <g id="Group_34" data-name="Group 34" transform="translate(17.421 0.001)">
          <g id="Group_33" data-name="Group 33" transform="translate(0 0)">
            <path id="Path_29" data-name="Path 29" d="M206.617,5.4l-1.1-5.114a.365.365,0,0,0-.714.153l1.1,5.114a.365.365,0,0,0,.357.289.357.357,0,0,0,.077-.008A.365.365,0,0,0,206.617,5.4Z" transform="translate(-204.798 -0.001)"/>
          </g>
        </g>
      </g>
    </g>
  </g>
</svg>
